PathFileType	4	(X/Y/Z)	/Users/itak/Documents/Research/Walk-IL/dataset/trc/00563_00009.trc
DataRate	CameraRate	NumFrames	NumMarkers	Units	OrigDataRate	OrigDataStartFrame	OrigNumFrames
100.000000	100.000000	4	53	mm	100.000000	366	419
Frame#	Time	RPSI			LPSI			L3			STRN			T10			C7			CLAV			RBAK			LBAK			LSHO			LUPA			LAEL			LAOL			LWTS			LWPS			LFRA			LHPS			LHTS			RSHO			RUPA			RAEL			RAOL			RWTS			RWPS			RFRA			RIFD			RHTS			RHPS			RBHD			LFHD			RFHD			LBHD			LHIP			RHIP			RASI			LASI			LKNE			LTHI			LANK			LTIP			LTOE			LMT1			LMT5			LHEE			RKNE			RTHI			RANK			RTIP			RTOE			RMT1			RMT5			RHEE			LIFD			
		X1	Y1	Z1	X2	Y2	Z2	X3	Y3	Z3	X4	Y4	Z4	X5	Y5	Z5	X6	Y6	Z6	X7	Y7	Z7	X8	Y8	Z8	X9	Y9	Z9	X10	Y10	Z10	X11	Y11	Z11	X12	Y12	Z12	X13	Y13	Z13	X14	Y14	Z14	X15	Y15	Z15	X16	Y16	Z16	X17	Y17	Z17	X18	Y18	Z18	X19	Y19	Z19	X20	Y20	Z20	X21	Y21	Z21	X22	Y22	Z22	X23	Y23	Z23	X24	Y24	Z24	X25	Y25	Z25	X26	Y26	Z26	X27	Y27	Z27	X28	Y28	Z28	X29	Y29	Z29	X30	Y30	Z30	X31	Y31	Z31	X32	Y32	Z32	X33	Y33	Z33	X34	Y34	Z34	X35	Y35	Z35	X36	Y36	Z36	X37	Y37	Z37	X38	Y38	Z38	X39	Y39	Z39	X40	Y40	Z40	X41	Y41	Z41	X42	Y42	Z42	X43	Y43	Z43	X44	Y44	Z44	X45	Y45	Z45	X46	Y46	Z46	X47	Y47	Z47	X48	Y48	Z48	X49	Y49	Z49	X50	Y50	Z50	X51	Y51	Z51	X52	Y52	Z52	X53	Y53	Z53	

367	3.66	1340.360229492188	1018.420043945312	549.1561889648438	1389.927124023438	1022.277648925781	425.7042846679688	1370.590454101562	1109.38525390625	485.7742614746094	1589.552124023438	1299.632568359375	552.3469848632812	1361.483276367188	1235.725708007812	479.5917358398438	1401.182861328125	1510.544677734375	503.0559997558594	1570.983276367188	1411.009033203125	545.0860595703125	1307.572631835938	1385.369506835938	563.9378051757812	1393.279418945312	1455.274047851562	409.8501586914062	1506.86376953125	1484.465209960938	357.1015625	1509.467163085938	1360.550537109375	275.323974609375	1512.898803710938	1141.62890625	243.2137298583984	1418.658081054688	1139.051635742188	281.0916748046875	1569.679565429688	889.10791015625	294.8519592285156	1542.6923828125	875.2557983398438	212.724609375	1529.141723632812	1054.169311523438	234.9036102294922	1545.695922851562	814.719482421875	217.4671936035156	1585.138305664062	813.42822265625	272.7398681640625	1409.998168945312	1477.298583984375	666.93408203125	1369.981689453125	1415.331909179688	724.1319580078125	1335.760375976562	1135.515258789062	784.560302734375	1289.395751953125	1116.605346679688	743.3294067382812	1477.187622070312	917.6287231445312	799.7103271484375	1415.330810546875	900.0772094726562	850.6692504882812	1342.597290039062	1080.684326171875	798.2529907226562	1482.964599609375	744.1812133789062	809.9093627929688	1500.11181640625	827.3649291992188	826.4524536132812	1432.884033203125	826.60595703125	858.7451782226562	1461.559448242188	1695.6171875	578.0618896484375	1661.697998046875	1702.984741210938	523.5056762695312	1584.03515625	1704.665893554688	645.6216430664062	1555.961303710938	1690.469970703125	443.1828918457031	1553.868896484375	941.27978515625	349.5127868652344	1408.56005859375	945.4254760742188	705.5970458984375	1511.10986328125	976.5907592773438	684.1126098632812	1609.901123046875	966.1331787109375	425.9104614257812	1525.709594726562	497.8922729492188	409.2365112304688	1552.812255859375	662.7401123046875	376.8734130859375	1428.205444335938	33.70817947387695	388.5969848632812	1457.710327148438	255.7060546875	382.2224426269531	1614.77587890625	40.45137786865234	511.7999267578125	1531.951293945312	46.81038284301758	521.978515625	1548.177490234375	36.68336486816406	415.6967163085938	1346.6279296875	29.98879051208496	416.4033203125	1440.271240234375	499.6164245605469	664.7472534179688	1441.32177734375	790.6680297851562	716.8287963867188	1321.474609375	39.54099273681641	602.67431640625	1432.162109375	356.3896179199219	645.6755981445312	1546.709594726562	41.32532501220703	640.2296752929688	1499.51416015625	42.70597457885742	579.1265869140625	1441.354125976562	41.85796356201172	666.8251953125	1290.416748046875	24.37318992614746	532.6134033203125	1550.59521484375	724.990478515625	275.090576171875	
368	3.67	1340.949462890625	1018.273193359375	550.0916748046875	1389.925048828125	1022.304443359375	426.3352355957031	1370.6416015625	1109.311889648438	486.4786071777344	1589.779907226562	1299.60205078125	552.5626831054688	1361.747192382812	1235.634887695312	480.2742919921875	1401.290161132812	1510.518920898438	503.5214538574219	1571.195556640625	1410.990356445312	545.4201049804688	1307.822265625	1385.281372070312	564.582763671875	1393.21484375	1455.224731445312	410.2779846191406	1506.85302734375	1484.472290039062	357.4807739257812	1510.276000976562	1360.580444335938	275.7125854492188	1516.561645507812	1141.720825195312	243.6167297363281	1422.033813476562	1137.911376953125	280.8902587890625	1577.406860351562	890.6572875976562	296.6419067382812	1551.00244140625	875.899658203125	214.4439544677734	1534.162719726562	1054.539428710938	235.7409820556641	1555.304443359375	815.4866333007812	219.4794769287109	1594.579467773438	815.2586669921875	274.8955688476562	1410.375610351562	1477.194946289062	667.4401245117188	1370.350463867188	1415.22607421875	724.638671875	1335.658081054688	1135.43505859375	784.82080078125	1289.258056640625	1116.738891601562	743.4983520507812	1475.453002929688	916.3421630859375	799.8980102539062	1413.490478515625	899.3539428710938	850.9277954101562	1342.16748046875	1080.53955078125	798.4939575195312	1479.841186523438	742.7753295898438	810.0390625	1497.692626953125	826.0474853515625	826.7882080078125	1430.416259765625	825.7500610351562	858.9732666015625	1461.610595703125	1695.538818359375	578.3636474609375	1661.726928710938	1703.117919921875	524.0193481445312	1584.024536132812	1704.686889648438	646.0439453125	1556.132202148438	1690.55322265625	443.53857421875	1553.541015625	941.227783203125	349.6719970703125	1409.348266601562	945.257080078125	706.134521484375	1511.839721679688	976.4515991210938	684.3561401367188	1609.852661132812	966.1499633789062	425.7546997070312	1525.744384765625	497.9177856445312	409.2787780761719	1552.707763671875	662.7743530273438	376.8584289550781	1428.21240234375	33.76190185546875	388.6287536621094	1457.713256835938	255.7262573242188	382.3118896484375	1614.77587890625	40.44501113891602	511.8192138671875	1531.953979492188	46.79771041870117	522.0031127929688	1548.178100585938	36.7138671875	415.7069091796875	1346.624877929688	30.01370429992676	416.4215698242188	1440.624633789062	499.5169677734375	664.7504272460938	1442.202880859375	790.5765991210938	716.9589233398438	1321.473510742188	39.54127502441406	602.661376953125	1432.343505859375	356.2772827148438	645.759765625	1546.708740234375	41.32522583007812	640.2291870117188	1499.518920898438	42.70049285888672	579.1183471679688	1441.300415039062	41.88156127929688	666.8194580078125	1290.414184570312	24.37940788269043	532.6011352539062	1561.911010742188	725.9949340820312	277.7401123046875	
369	3.68	1341.452758789062	1018.178283691406	550.975830078125	1389.92724609375	1022.338623046875	426.9513854980469	1370.700317382812	1109.254638671875	487.1526184082031	1589.982788085938	1299.583984375	552.7760620117188	1361.967651367188	1235.561157226562	480.9429626464844	1401.367309570312	1510.499145507812	503.9753112792969	1571.384765625	1410.981689453125	545.738525390625	1308.048828125	1385.214721679688	565.2269287109375	1393.123901367188	1455.18212890625	410.6881408691406	1506.809814453125	1484.4931640625	357.8585205078125	1511.062744140625	1360.657348632812	276.06884765625	1520.227661132812	1141.88671875	244.0478210449219	1425.442016601562	1136.802001953125	280.7142639160156	1585.303100585938	892.4264526367188	298.4804077148438	1559.49462890625	876.7362060546875	216.2302551269531	1539.247802734375	1055.023681640625	236.6001892089844	1565.137084960938	816.4771728515625	221.5874481201172	1604.237182617188	817.3555908203125	277.1334838867188	1410.743408203125	1477.126220703125	667.9357299804688	1370.701049804688	1415.173950195312	725.142578125	1335.546752929688	1135.413452148438	785.1220092773438	1289.08447265625	1116.917846679688	743.724609375	1473.7421875	915.1734008789062	800.1419677734375	1411.699951171875	898.7434692382812	851.2651977539062	1341.7314453125	1080.462158203125	798.7974243164062	1476.836181640625	741.4998779296875	810.277587890625	1495.359375	824.8995971679688	827.2247314453125	1428.021606445312	825.0067749023438	859.2791748046875	1461.653076171875	1695.467651367188	578.6513671875	1661.751953125	1703.235717773438	524.5269165039062	1584	1704.707885742188	646.4640502929688	1556.302368164062	1690.647583007812	443.8891906738281	1553.196533203125	941.156005859375	349.8590393066406	1410.081787109375	945.0960693359375	706.6646118164062	1512.532348632812	976.3223266601562	684.5931396484375	1609.785522460938	966.1655883789062	425.6038513183594	1525.76171875	497.9454345703125	409.3052368164062	1552.584228515625	662.806396484375	376.8472595214844	1428.218994140625	33.80725479125977	388.6567993164062	1457.705932617188	255.7418212890625	382.3935546875	1614.775390625	40.43975448608398	511.8380737304688	1531.956176757812	46.78754043579102	522.0238037109375	1548.177856445312	36.73909378051758	415.7158508300781	1346.623779296875	30.03560447692871	416.4374694824219	1440.934204101562	499.4354858398438	664.7674560546875	1443.079956054688	790.5034790039062	717.0791625976562	1321.473999023438	39.54284286499023	602.6490478515625	1432.512817382812	356.18017578125	645.8457641601562	1546.706909179688	41.32404708862305	640.2326049804688	1499.522094726562	42.69518661499023	579.1141967773438	1441.24951171875	41.89548492431641	666.8260498046875	1290.413452148438	24.38835906982422	532.5897827148438	1573.50537109375	727.2827758789062	280.5553894042969	
370	3.69	1341.858642578125	1018.132751464844	551.794189453125	1389.934936523438	1022.37939453125	427.545654296875	1370.777465820312	1109.212890625	487.7908630371094	1590.161987304688	1299.577758789062	552.9887084960938	1362.131103515625	1235.504638671875	481.5964050292969	1401.418212890625	1510.4853515625	504.4131469726562	1571.550048828125	1410.982177734375	546.0390014648438	1308.251586914062	1385.168579101562	565.8630981445312	1393.015380859375	1455.146606445312	411.0757141113281	1506.740234375	1484.53173828125	358.2372131347656	1511.830932617188	1360.782592773438	276.3930053710938	1523.867919921875	1142.131591796875	244.4985198974609	1428.860229492188	1135.735107421875	280.5641784667969	1593.325439453125	894.427978515625	300.3583984375	1568.115844726562	877.7744140625	218.0818023681641	1544.363037109375	1055.62744140625	237.4758605957031	1575.13623046875	817.7046508789062	223.7876739501953	1614.058227539062	819.7347412109375	279.4419860839844	1411.098754882812	1477.093994140625	668.4176635742188	1371.033203125	1415.177124023438	725.6402587890625	1335.4306640625	1135.446533203125	785.462890625	1288.885131835938	1117.140747070312	744.0052490234375	1472.080688476562	914.1372680664062	800.4620971679688	1409.971313476562	898.2467041015625	851.6797485351562	1341.29296875	1080.449096679688	799.160400390625	1473.961181640625	740.3812866210938	810.6387329101562	1493.122192382812	823.9107055664062	827.7528686523438	1425.7109375	824.3695068359375	859.65771484375	1461.685668945312	1695.3974609375	578.9309692382812	1661.774291992188	1703.33642578125	525.0227661132812	1583.958862304688	1704.724487304688	646.8862915039062	1556.463745117188	1690.752319335938	444.24072265625	1552.843139648438	941.065185546875	350.0690307617188	1410.763305664062	944.9468383789062	707.182861328125	1513.186889648438	976.2012939453125	684.8184204101562	1609.704711914062	966.1814575195312	425.4666442871094	1525.761596679688	497.97412109375	409.3183288574219	1552.444091796875	662.8348388671875	376.8459167480469	1428.224975585938	33.84429931640625	388.6810913085938	1457.6884765625	255.7525177001953	382.468994140625	1614.774047851562	40.43575286865234	511.8561706542969	1531.957641601562	46.77986907958984	522.0408935546875	1548.17626953125	36.75917053222656	415.7238464355469	1346.624633789062	30.05486488342285	416.451171875	1441.195678710938	499.3693542480469	664.7998046875	1443.921997070312	790.4373168945312	717.2051391601562	1321.474731445312	39.54417419433594	602.6387329101562	1432.661987304688	356.1004638671875	645.930908203125	1546.703735351562	41.32225036621094	640.2391357421875	1499.523315429688	42.69053649902344	579.114013671875	1441.207763671875	41.89751434326172	666.8439331054688	1290.413818359375	24.39850234985352	532.5797119140625	1585.337280273438	728.881591796875	283.51220703125	
